<svg xmlns="http://www.w3.org/2000/svg" viewBox="0 0 1270.55556 425.39683"><defs><style>.a{fill:#252525;}.b{fill:none;}</style></defs><title>rakuten_logo-freelogovectors.net</title><polygon class="a" points="1001.29 333.793 275.279 333.793 333.111 391.803 1001.29 333.793"/><path class="a" d="M347.25518,286.45958v8.769c-13.48022-8.61161-25.57092-13.62242-42.12511-13.62242-50.86261,0-89.50164,46.52445-89.50164,103.66344,0,57.15439,38.639,103.65117,89.50164,103.65117,16.55428,0,28.64489-4.98959,42.12511-13.61659v8.7625H391.963V286.45958ZM305.13006,441.33517c-25.07956,0-43.44278-24.77292-43.44278-56.06553,0-31.27065,18.36322-56.0468,43.44278-56.0468,25.11045,0,42.80876,24.77615,42.80876,56.0468C347.93882,416.56215,330.24051,441.33517,305.13006,441.33517Z" transform="translate(-4.72222 -187.30159)"/><path class="a" d="M705.41436,286.45958v116.0828c0,21.77409-14.91244,40.16419-36.6351,40.16419-21.70408,0-36.62936-18.3901-36.62936-40.16419V286.45958h-44.711v116.0828c0,47.63006,32.48284,86.37833,79.97309,86.37833,21.99234,0,38.00231-12.20077,38.00231-12.20077v7.34668H750.1255v-197.607Z" transform="translate(-4.72222 -187.30159)"/><path class="a" d="M1122.02453,484.06662V367.98382c0-21.77409,14.91244-40.16418,36.63517-40.16418,21.70394,0,36.62936,18.39009,36.62936,40.16418v116.0828H1240V367.98382c0-47.63-32.48277-86.37833-79.97309-86.37833-21.9924,0-38.00238,12.20078-38.00238,12.20078v-7.34669h-44.71107v197.607Z" transform="translate(-4.72222 -187.30159)"/><path class="a" d="M86.76176,484.06662V407.50941h33.07442l57.2588,76.55721h58.53663l-69.19057-92.378a85.14032,85.14032,0,0,0-49.16427-154.47171H40V484.06662Zm0-199.98143h30.51493a38.25973,38.25973,0,0,1,0,76.51925H86.76176Z" transform="translate(-4.72222 -187.30159)"/><path class="a" d="M870.63111,437.30863a26.531,26.531,0,0,1-14.95159,4.86027c-7.30434,0-21.07646-5.59881-21.07646-24.24547V333.3606h38.23638V286.45726H834.60306l-.00328-49.243H789.88816l.00327,49.243H766.238v46.90333h23.6534v85.24846c-.01216,44.1249,33.12993,70.48191,66.47194,70.48191,12.42459,0,29.66759-4.08144,43.73617-12.43836Z" transform="translate(-4.72222 -187.30159)"/><polygon class="a" points="498.399 191.785 575.093 99.158 512.417 99.158 458.776 167.997 458.776 33.594 412.736 33.594 412.736 296.765 458.776 296.765 458.776 215.592 524.72 296.765 587.364 296.765 498.399 191.785"/><path class="a" d="M973.90628,281.44529c-51.74827,0-88.86832,45.61424-88.86832,103.81756,0,61.199,46.59269,103.83367,93.31,103.83367,23.58186,0,53.799-8.11039,79.18334-44.2345l-39.49018-22.87585c-30.54233,45.15977-81.44312,22.23841-87.31985-22.91777l128.79092.02839C1070.53111,328.12242,1024.781,281.44529,973.90628,281.44529Zm39.03126,78.31119H932.41C941.82005,313.47364,1004.22513,310.81851,1012.93754,359.75648Z" transform="translate(-4.72222 -187.30159)"/><rect class="b" width="1270.55556" height="425.39683"/></svg>